<svg width="56" height="39" viewBox="0 0 56 39" fill="none" xmlns="http://www.w3.org/2000/svg">
<path d="M50.5917 0H4.875C2.18151 0 0 2.19505 0 4.875V34.125C0 36.8209 2.19754 39 4.875 39H50.5917C53.2626 39 55.4667 36.8301 55.4667 34.125V4.875C55.4667 2.19982 53.2938 0 50.5917 0ZM49.909 3.25C48.9129 4.24071 31.7723 21.2911 31.1805 21.8798C30.2597 22.8006 29.0355 23.3076 27.7333 23.3076C26.4312 23.3076 25.207 22.8005 24.2831 21.8767C23.8851 21.4808 6.93366 4.61868 5.55772 3.25H49.909ZM3.25 33.4635V5.53854L17.2941 19.5087L3.25 33.4635ZM5.55977 35.75L19.5984 21.8007L21.9881 24.1778C23.5227 25.7125 25.5631 26 27.7333 26C29.9036 26 31.9439 25.7125 33.4755 24.1809L35.8683 21.8007L49.9069 35.75H5.55977ZM52.2167 33.4635L38.1726 19.5087L52.2167 5.53854V33.4635Z" fill="#181717"/>
</svg>
