<svg width="11" height="20" viewBox="0 0 11 20" fill="none" xmlns="http://www.w3.org/2000/svg">
<path d="M9.96262 0.902216L7.60768 0.898438C4.96199 0.898438 3.25223 2.6526 3.25223 5.36762V7.42821H0.884451C0.679847 7.42821 0.51416 7.59409 0.51416 7.79869V10.7843C0.51416 10.9889 0.680035 11.1545 0.884451 11.1545H3.25223V18.6881C3.25223 18.8927 3.41792 19.0584 3.62252 19.0584H6.71181C6.91641 19.0584 7.0821 18.8925 7.0821 18.6881V11.1545H9.85059C10.0552 11.1545 10.2209 10.9889 10.2209 10.7843L10.222 7.79869C10.222 7.70045 10.1829 7.60637 10.1136 7.53684C10.0442 7.46732 9.94977 7.42821 9.85153 7.42821H7.0821V5.68142C7.0821 4.84184 7.28217 4.41563 8.37585 4.41563L9.96224 4.41507C10.1667 4.41507 10.3323 4.24919 10.3323 4.04477V1.27251C10.3323 1.06828 10.1668 0.902594 9.96262 0.902216Z" fill="#EAEAEA"/>
</svg>
