<svg width="18" height="19" viewBox="0 0 18 19" fill="none" xmlns="http://www.w3.org/2000/svg">
<path d="M17.9542 6.09041C17.912 5.13382 17.7573 4.47618 17.5357 3.90632C17.3071 3.30142 16.9554 2.75986 16.4946 2.30966C16.0444 1.85246 15.4993 1.49719 14.9014 1.27216C14.3282 1.05056 13.674 0.895866 12.7174 0.85369C11.7537 0.807942 11.4478 0.797363 9.00346 0.797363C6.55916 0.797363 6.25321 0.807942 5.29305 0.850118C4.33646 0.892294 3.67881 1.04712 3.10909 1.26858C2.50406 1.49719 1.9625 1.84888 1.5123 2.30966C1.05509 2.75986 0.699961 3.305 0.474792 3.90288C0.253195 4.47618 0.0985028 5.13025 0.0563266 6.08684C0.0105784 7.05058 0 7.35653 0 9.80083C0 12.2451 0.0105784 12.5511 0.0527547 13.5112C0.0949309 14.4678 0.24976 15.1255 0.471357 15.6953C0.699961 16.3002 1.05509 16.8418 1.5123 17.292C1.9625 17.7492 2.50763 18.1045 3.10552 18.3295C3.67881 18.5511 4.33289 18.7058 5.28962 18.748C6.24964 18.7903 6.55573 18.8007 9.00003 18.8007C11.4443 18.8007 11.7503 18.7903 12.7104 18.748C13.667 18.7058 14.3247 18.5511 14.8944 18.3295C16.1043 17.8617 17.0609 16.9051 17.5287 15.6953C17.7502 15.122 17.905 14.4678 17.9472 13.5112C17.9893 12.5511 17.9999 12.2451 17.9999 9.80083C17.9999 7.35653 17.9963 7.05058 17.9542 6.09041ZM16.3329 13.4409C16.2942 14.3201 16.1465 14.7949 16.0234 15.1115C15.7209 15.8958 15.0984 16.5183 14.3141 16.8208C13.9976 16.9439 13.5193 17.0915 12.6435 17.1302C11.6939 17.1725 11.4092 17.1829 9.00703 17.1829C6.60491 17.1829 6.31655 17.1725 5.3704 17.1302C4.49115 17.0915 4.01636 16.9439 3.69983 16.8208C3.30953 16.6765 2.95426 16.4479 2.6659 16.149C2.36695 15.857 2.13835 15.5053 1.9941 15.115C1.871 14.7985 1.72332 14.3201 1.68471 13.4445C1.6424 12.4949 1.63196 12.21 1.63196 9.80783C1.63196 7.40571 1.6424 7.11734 1.68471 6.17133C1.72332 5.29209 1.871 4.8173 1.9941 4.50077C2.13835 4.11033 2.36695 3.7552 2.66947 3.46669C2.96127 3.16775 3.31297 2.93915 3.7034 2.79503C4.01993 2.67194 4.4983 2.52425 5.37397 2.48551C6.32355 2.44334 6.60848 2.43276 9.01047 2.43276C11.4162 2.43276 11.701 2.44334 12.6471 2.48551C13.5264 2.52425 14.0011 2.67194 14.3177 2.79503C14.708 2.93915 15.0632 3.16775 15.3516 3.46669C15.6505 3.75863 15.8792 4.11033 16.0234 4.50077C16.1465 4.8173 16.2942 5.29552 16.3329 6.17133C16.3751 7.12092 16.3857 7.40571 16.3857 9.80783C16.3857 12.21 16.3751 12.4913 16.3329 13.4409Z" fill="#EAEAEA"/>
<path d="M9.00324 5.17578C6.45 5.17578 4.37842 7.24723 4.37842 9.80061C4.37842 12.354 6.45 14.4254 9.00324 14.4254C11.5566 14.4254 13.6281 12.354 13.6281 9.80061C13.6281 7.24723 11.5566 5.17578 9.00324 5.17578ZM9.00324 12.8006C7.34683 12.8006 6.00323 11.4572 6.00323 9.80061C6.00323 8.14406 7.34683 6.8006 9.00324 6.8006C10.6598 6.8006 12.0033 8.14406 12.0033 9.80061C12.0033 11.4572 10.6598 12.8006 9.00324 12.8006Z" fill="#EAEAEA"/>
<path d="M14.891 4.99326C14.891 5.5895 14.4075 6.07294 13.8111 6.07294C13.2149 6.07294 12.7314 5.5895 12.7314 4.99326C12.7314 4.39688 13.2149 3.91357 13.8111 3.91357C14.4075 3.91357 14.891 4.39688 14.891 4.99326Z" fill="#EAEAEA"/>
</svg>
