<svg width="43" height="50" viewBox="0 0 43 50" fill="none" xmlns="http://www.w3.org/2000/svg">
<path d="M21.5 0C9.6449 0 0 7.88555 0 17.5781C0 20.8529 1.10952 24.0488 3.20935 26.8215L20.2762 49.3075C20.6031 49.7383 21.1791 50 21.7985 50C21.8033 50 21.8079 50 21.8127 50C22.4375 49.996 23.0147 49.7262 23.3356 49.2879L39.9674 26.584C41.9514 23.8699 43 20.7558 43 17.5781C43 7.88555 33.3551 0 21.5 0ZM36.8923 25.0799L21.7714 45.7213L6.25495 25.2779C4.50712 22.9701 3.55944 20.3076 3.55944 17.5781C3.55944 9.50098 11.6208 2.91016 21.5 2.91016C31.3792 2.91016 39.4286 9.50098 39.4286 17.5781C39.4286 20.2267 38.5434 22.8211 36.8923 25.0799Z" fill="#181717"/>
<path d="M21.625 10C16.3178 10 12 13.6572 12 18.1526C12 22.6192 16.2475 26.3051 21.625 26.3051C27.0688 26.3051 31.25 22.5701 31.25 18.1526C31.25 13.6572 26.9322 10 21.625 10ZM21.625 23.6057C18.0683 23.6057 15.1869 21.157 15.1869 18.1526C15.1869 15.1557 18.0868 12.6994 21.625 12.6994C25.1631 12.6994 28.0524 15.1557 28.0524 18.1526C28.0524 21.1131 25.238 23.6057 21.625 23.6057Z" fill="#181717"/>
</svg>
